<svg width="1130" height="218" viewBox="0 0 1130 218" fill="none" xmlns="http://www.w3.org/2000/svg">
<path d="M243.039 144.301C244.862 144.301 246.667 144.119 248.456 143.756C250.251 143.393 251.845 142.781 253.237 141.92C254.623 141.053 255.746 139.936 256.607 138.571C257.467 137.212 257.898 135.531 257.898 133.527C257.898 131.119 257.276 129.075 256.032 127.394C254.781 125.712 253.134 124.223 251.089 122.925C249.044 121.634 246.724 120.443 244.128 119.354C241.539 118.257 238.883 117.121 236.159 115.944C233.428 114.761 230.769 113.429 228.179 111.949C225.59 110.477 223.274 108.694 221.229 106.603C219.184 104.512 217.537 102.023 216.286 99.138C215.035 96.253 214.41 92.81 214.41 88.808C214.41 84.127 215.318 79.877 217.133 76.057C218.956 72.244 221.549 69.006 224.911 66.343C228.273 63.686 232.363 61.632 237.178 60.179C241.993 58.726 247.379 58 253.338 58C254.879 58 256.728 58.058 258.887 58.171C261.045 58.279 263.342 58.471 265.777 58.746C268.205 59.022 270.692 59.375 273.241 59.806C275.784 60.236 278.238 60.771 280.606 61.41L276.651 78.791L275.491 79.336C273.494 78.428 271.469 77.654 269.418 77.015C267.373 76.377 265.386 75.855 263.456 75.452C261.527 75.041 259.711 74.746 258.009 74.564C256.301 74.383 254.788 74.292 253.469 74.292C249.381 74.292 246.133 75.109 243.725 76.743C241.317 78.377 240.113 80.832 240.113 84.107C240.113 86.468 240.736 88.468 241.98 90.109C243.23 91.744 244.878 93.196 246.923 94.467C248.973 95.738 251.304 96.898 253.913 97.948C256.529 98.99 259.189 100.113 261.893 101.317C264.596 102.52 267.252 103.862 269.862 105.342C272.478 106.822 274.808 108.617 276.853 110.729C278.898 112.84 280.545 115.362 281.796 118.295C283.047 121.227 283.672 124.713 283.672 128.756C283.672 133.577 282.751 137.942 280.908 141.849C279.065 145.756 276.419 149.095 272.969 151.867C269.512 154.638 265.309 156.786 260.359 158.313C255.403 159.833 249.835 160.593 243.654 160.593C241.428 160.593 239.007 160.479 236.391 160.25C233.781 160.028 231.054 159.664 228.21 159.16C225.372 158.663 222.5 158.003 219.595 157.183C216.682 156.369 213.818 155.347 211 154.116L214.884 136.664L216.316 135.988C219 137.212 221.511 138.326 223.852 139.328C226.192 140.323 228.442 141.197 230.601 141.95C232.759 142.697 234.861 143.275 236.905 143.685C238.95 144.096 240.994 144.301 243.039 144.301Z" fill="white"/>
<path d="M1021.29 59.362V159.231H993.614V59.362H1021.29Z" fill="white"/>
<path d="M930.417 123.238H919.653V159.231H891.972V59.362H930.346C937.347 59.362 943.393 60.065 948.484 61.47C953.575 62.882 957.778 64.782 961.094 67.17C964.415 69.55 966.861 72.297 968.427 75.411C969.994 78.526 970.778 81.764 970.778 85.126C970.778 88.266 970.186 91.209 969.002 93.953C967.819 96.704 966.296 99.249 964.433 101.589C962.569 103.93 960.515 106.068 958.269 108.005C956.016 109.935 953.843 111.65 951.752 113.15L979.302 159.231H947.324L930.417 123.238ZM919.653 75.654V108.308H935.188C936.237 107.716 937.296 106.919 938.366 105.917C939.428 104.921 940.38 103.731 941.221 102.346C942.061 100.954 942.744 99.383 943.268 97.635C943.793 95.887 944.055 93.946 944.055 91.814C944.055 89.494 943.712 87.355 943.026 85.398C942.347 83.448 941.349 81.744 940.03 80.284C938.712 78.831 937.088 77.698 935.158 76.884C933.228 76.064 930.989 75.654 928.439 75.654H919.653Z" fill="white"/>
<path d="M819.098 160.593C811.734 160.593 804.938 159.503 798.711 157.324C792.483 155.138 787.11 151.944 782.591 147.741C778.071 143.537 774.537 138.379 771.988 132.266C769.446 126.153 768.175 119.165 768.175 111.304C768.175 103.261 769.503 95.967 772.16 89.423C774.816 82.879 778.556 77.278 783.377 72.617C788.192 67.964 793.929 64.362 800.587 61.813C807.245 59.271 814.595 58 822.639 58C830.003 58 836.798 59.089 843.026 61.268C849.254 63.447 854.627 66.628 859.147 70.811C863.666 74.995 867.2 80.143 869.749 86.256C872.291 92.369 873.562 99.357 873.562 107.218C873.562 115.261 872.223 122.565 869.547 129.129C866.864 135.699 863.124 141.315 858.33 145.975C853.534 150.629 847.798 154.23 841.12 156.779C834.435 159.321 827.094 160.593 819.098 160.593ZM821.479 144.301C825.393 144.301 828.826 143.345 831.779 141.436C834.73 139.526 837.196 136.98 839.173 133.799C841.15 130.619 842.639 126.973 843.642 122.864C844.636 118.748 845.135 114.464 845.135 110.012C845.135 105.238 844.566 100.691 843.43 96.374C842.293 92.056 840.659 88.263 838.527 84.995C836.389 81.719 833.776 79.117 830.689 77.187C827.595 75.257 824.118 74.292 820.258 74.292C816.35 74.292 812.931 75.247 809.999 77.157C807.067 79.06 804.612 81.602 802.635 84.783C800.658 87.971 799.168 91.63 798.166 95.758C797.17 99.894 796.673 104.169 796.673 108.58C796.673 113.355 797.238 117.901 798.368 122.219C799.504 126.529 801.132 130.322 803.25 133.598C805.362 136.873 807.951 139.476 811.018 141.406C814.085 143.335 817.571 144.301 821.479 144.301Z" fill="white"/>
<path d="M646.013 159.231H622.832L630.882 59.362H669.528L681.119 105.312L685.003 125.618H686.364L690.732 105.241L702.253 59.362H743.764L751.814 159.231H721.541L719.019 95.758L718.958 76.541H717.253L712.956 95.214L696.462 157.253H671.102L654.598 95.355L650.17 76.541H648.465V95.627L646.013 159.231Z" fill="white"/>
<path d="M601.706 59.362V159.231H574.025V59.362H601.706Z" fill="white"/>
<path d="M559.026 159.231H525.756L494.192 108.782L530.871 59.362H556.231L520.642 102.235L559.026 159.231Z" fill="white"/>
<path d="M494.323 59.362V159.231H466.642V59.362H494.323Z" fill="white"/>
<path d="M443.467 59.362V159.231H415.787C415.787 159.231 415.787 126.458 415.787 110.071C415.787 93.168 415.787 59.362 415.787 59.362H443.467Z" fill="white"/>
<path d="M327.713 159.231H300.033V59.362H327.713V99.652H364.927V59.362H392.608V159.231H364.927V115.944H327.713V159.231Z" fill="white"/>
<g clip-path="url(#clip0_17_214)">
<path d="M103.732 160.945C103.656 160.881 103.234 160.702 102.8 160.536C102.353 160.383 101.957 160.178 101.918 160.076C101.88 159.974 102.238 159.552 102.787 159.054C104.409 157.598 105.713 156.18 106.415 155.119C106.786 154.557 107.45 153.701 107.884 153.203C110.324 150.482 113.556 145.576 116.252 140.505C117.989 137.234 118.104 136.889 118.258 134.424C118.449 131.281 118.309 127.193 117.862 122.926C117.644 120.895 117.466 119.17 117.466 119.119C117.466 118.953 117.108 119.094 114.285 120.346C112.471 121.151 111.525 121.649 111.193 121.955C110.925 122.211 110.197 122.684 109.571 123.029C108.204 123.757 107.846 123.782 105.649 123.31C103.579 122.875 102.685 122.377 100.577 120.525C100.092 120.103 99.7083 119.694 99.7083 119.618C99.7083 119.477 98.8396 118.161 97.6132 116.437L97 115.568L97.2172 114.75C97.396 114.086 97.4343 113.588 97.3832 112.221C97.3321 111.097 97.3577 110.42 97.4599 110.266C97.5365 110.139 97.5749 109.717 97.5493 109.359L97.511 108.695L98.2647 108.35C98.6863 108.146 99.2228 108.005 99.5167 108.018C99.8744 108.018 100.13 107.928 100.347 107.737C101.267 106.906 101.944 106.702 102.647 107.06C102.953 107.213 102.966 107.251 102.915 108.439C102.864 109.845 102.876 109.858 103.988 110.087C105.061 110.305 106.441 110.177 110.094 109.513C113.48 108.899 118.143 108.171 118.666 108.171C118.909 108.171 119.114 108.005 119.497 107.481C119.778 107.111 120.302 106.536 120.685 106.204L121.362 105.591L122.512 105.68C124.556 105.821 126.945 106.14 127.711 106.383C128.439 106.613 128.516 106.613 129.896 106.383C130.688 106.255 131.927 106.089 132.668 106.012C136.04 105.655 136.5 105.578 136.641 105.412C136.73 105.297 136.858 105.271 136.999 105.361C137.152 105.437 137.318 105.412 137.535 105.297C138.749 104.594 138.928 104.543 140.844 104.518C141.917 104.505 143.105 104.415 143.667 104.3C146.197 103.777 153.734 102.844 157.285 102.601L158.588 102.512L158.409 102.154C158.154 101.682 158.167 101.528 158.448 101.554C158.563 101.567 159.035 101.554 159.495 101.554L160.326 101.528L161.003 100.596C161.373 100.097 161.756 99.5609 161.859 99.4203C162.025 99.1776 162.063 99.1904 162.791 99.9058C163.213 100.327 163.685 100.941 163.852 101.285L164.145 101.911L165.998 101.848C168.732 101.758 176.039 101.618 176.933 101.643C177.355 101.656 178.351 101.745 179.143 101.848C179.935 101.95 180.842 102.039 181.162 102.039C181.852 102.039 181.864 102.103 180.612 100.417C179.744 99.2543 178.594 98.2195 177.789 97.8746C177.546 97.7851 177.189 97.5552 176.984 97.3891C176.78 97.2103 175.771 96.8015 174.634 96.4182C173.509 96.0477 172.487 95.6262 172.283 95.4473C172.079 95.2812 171.836 95.1407 171.747 95.1407C171.644 95.1407 171.031 95.0257 170.392 94.8724C169.409 94.6425 169.204 94.5531 169.204 94.3614C169.204 93.9143 170.341 94.1059 172.947 95.0002C174.046 95.3707 174.442 95.4601 174.442 95.3323C174.442 95.2174 173.765 94.9363 172.59 94.5403C171.491 94.1826 170.737 93.8632 170.737 93.7738C170.737 93.6844 170.839 93.6077 170.954 93.6077C171.274 93.6077 171.057 93.4672 170.584 93.365C170.29 93.3011 170.175 93.2117 170.201 93.0584C170.226 92.9434 170.175 92.8412 170.086 92.8412C170.009 92.8412 169.971 92.7518 170.022 92.6496C170.06 92.5474 170.047 92.458 169.984 92.458C169.817 92.458 169.396 92.9817 168.898 93.8121C168.642 94.2465 168.361 94.6297 168.272 94.6553C168.195 94.6936 167.722 94.668 167.224 94.6169C166.739 94.5658 166.202 94.5147 166.049 94.5147C165.844 94.502 165.755 94.4253 165.755 94.272C165.755 94.0548 165.563 94.0165 164.082 93.876C162.868 93.761 162.37 93.7482 162.267 93.8504C162.076 94.0421 161.923 94.0293 161.923 93.8121C161.923 93.6844 161.718 93.6077 161.258 93.5566C160.39 93.4672 157.03 93.1989 156.34 93.1606C156.059 93.135 155.752 93.0839 155.676 93.0456C155.484 92.9179 155.254 93.0839 155.331 93.2883C155.356 93.3778 155.305 93.4927 155.203 93.5311C154.922 93.646 154.922 93.646 154.871 93.25C154.832 92.9051 154.82 92.9051 153.785 92.8668C153.108 92.8412 152.725 92.8795 152.725 92.969C152.725 93.0328 152.827 93.0967 152.954 93.0967C153.069 93.0967 153.376 93.2245 153.619 93.3778C153.862 93.5183 154.27 93.6588 154.513 93.6844C154.756 93.6971 155.037 93.7099 155.126 93.7227C155.203 93.7355 155.28 93.7993 155.28 93.876C155.28 93.9526 155.075 94.0037 154.807 93.991C154.539 93.9782 153.976 93.9782 153.555 93.991L152.788 94.0165L153.299 94.1443C153.593 94.2209 153.925 94.4253 154.104 94.6297L154.385 95.0002L153.657 95.1407C153.248 95.2301 152.84 95.3323 152.737 95.3707C152.584 95.4218 152.571 95.3068 152.648 94.7064L152.725 93.9654L152.252 94.0548C151.996 94.1059 151.651 94.2465 151.485 94.3742C151.243 94.5531 151 94.5914 150.272 94.5658L149.352 94.5275L149.237 94.1059C149.071 93.4544 148.969 93.4289 148.585 93.9271C148.394 94.1698 148.151 94.3742 148.049 94.3742C147.908 94.3742 147.883 94.4509 147.934 94.6297C147.985 94.7958 147.959 94.8852 147.844 94.8852C147.755 94.898 145.737 94.9235 143.36 94.9491C140.984 94.9746 138.736 95.0641 138.378 95.1407C138.008 95.2046 137.548 95.294 137.331 95.3196C137.126 95.3323 137.331 95.3707 137.803 95.3834C138.263 95.3834 138.736 95.4345 138.851 95.4729C139.413 95.69 138.864 95.7795 136.96 95.7795C134.84 95.7795 134.431 95.8689 134.903 96.2138C135.095 96.3543 135.018 96.3927 134.329 96.4565C133.881 96.5076 133.255 96.546 132.936 96.546C132.451 96.5587 132.387 96.5715 132.591 96.6993C132.732 96.7759 133.115 96.8015 133.511 96.7631C134.201 96.6865 134.405 96.8142 133.984 97.0442C133.856 97.1081 133.128 97.1847 132.348 97.223C130.956 97.2997 129.5 97.6191 129.193 97.9257C129.116 98.0023 128.72 98.079 128.324 98.079C127.941 98.079 127.417 98.1428 127.175 98.2067C126.932 98.2834 126.038 98.3983 125.194 98.475C124.185 98.5516 123.483 98.6794 123.15 98.8455C122.678 99.0754 122.384 99.0882 118.871 99.0243C115.217 98.9732 113.748 98.871 112.675 98.6027C112.394 98.5261 111.615 98.3472 110.95 98.2067C109.021 97.7724 105.559 95.8817 104.167 94.502C102.851 93.2117 102.685 92.7901 102.059 89.2003C101.765 87.4757 101.74 87.0541 101.791 84.9846C101.854 82.3529 102.021 81.5864 102.953 79.6063C104.882 75.5439 107.744 73.6787 110.746 74.5474C112.062 74.9307 113.493 75.2117 114.067 75.2117C114.987 75.2117 116.827 75.4928 116.955 75.6716C117.223 75.9782 116.673 76.0804 114.336 76.1315C111.768 76.2082 111.167 76.3104 109.852 76.9491C108.894 77.409 108.357 77.9967 107.935 79.0059L107.731 79.4913L108.306 80.0023C109.405 80.986 111.308 81.9441 113.378 82.5318C113.978 82.7106 115.754 83.03 117.338 83.2472C118.922 83.4644 120.327 83.7071 120.455 83.7837C120.595 83.8604 120.851 83.9498 121.03 83.9754C121.209 84.0009 121.924 84.0903 122.614 84.1798C123.891 84.3331 124.402 84.6269 123.189 84.4991C122.639 84.448 122.563 84.4608 122.805 84.563C123.01 84.6652 123.342 84.6652 123.968 84.5758C124.862 84.4353 125.514 84.4864 125.514 84.678C125.514 84.7419 125.424 84.793 125.297 84.793C125.182 84.793 125.118 84.8185 125.156 84.8568C125.194 84.9079 125.769 84.9846 126.421 85.0612C129.742 85.4062 137.727 86.1982 137.893 86.1982C138.008 86.1982 138.187 86.2621 138.289 86.326C138.455 86.4409 138.455 86.4793 138.25 86.6326C138.059 86.7859 138.097 86.8114 138.698 86.9392C139.26 87.0414 139.387 87.0286 139.515 86.8625C139.63 86.6964 139.988 86.6581 141.521 86.6581C143.322 86.6453 143.386 86.6581 143.514 86.9264C143.629 87.1819 143.59 87.2074 143.003 87.3352C142.645 87.4118 142.262 87.4885 142.147 87.4885C141.406 87.5524 145.545 87.9739 146.95 87.9867C147.538 87.9867 148.777 88.1017 149.697 88.255C151.128 88.4849 151.894 88.5233 154.705 88.5105C156.531 88.4977 158.78 88.5488 159.687 88.6382C160.837 88.7404 161.565 88.7404 162.05 88.651C162.472 88.5744 162.778 88.5616 162.83 88.6382C162.868 88.7021 163.558 88.8682 164.363 89.0215C165.167 89.162 166.164 89.392 166.585 89.5197C167.429 89.788 169.996 90.2223 171.9 90.4012C172.564 90.4778 173.701 90.695 174.442 90.8994C175.183 91.1166 176.218 91.3721 176.742 91.4743C178.402 91.8192 181.417 92.969 181.66 93.3394C181.698 93.4161 182.145 93.6844 182.656 93.9526C185.02 95.1918 186.438 97.6446 186.821 101.145C186.898 101.886 186.898 102.282 186.808 102.397C186.629 102.601 186.617 102.601 187.639 102.844C188.661 103.087 189.695 103.649 189.593 103.904C189.555 104.007 189.491 104.16 189.453 104.249C189.338 104.505 190.194 105.412 190.743 105.603C191.024 105.706 191.433 105.91 191.65 106.051C192.02 106.281 192.072 106.383 192.072 106.881C192.072 107.328 192.187 107.622 192.583 108.235C192.864 108.657 193.285 109.206 193.541 109.449C194.039 109.921 194.103 110.317 193.809 110.931C193.707 111.135 193.464 112.131 193.285 113.153C192.902 115.249 192.825 115.389 191.663 115.977C190.935 116.347 190.858 116.424 190.155 117.497C189.568 118.378 189.67 118.723 190.679 119.426C191.356 119.899 190.59 119.809 189.478 119.285C188.903 119.017 188.469 119.094 187.741 119.592C187.23 119.95 187 120.001 185.786 120.116L184.943 120.18L183.321 119.094C182.375 118.455 181.57 118.008 181.379 118.008C181.213 118.008 180.28 117.574 179.322 117.024C178.364 116.488 177.368 115.951 177.125 115.823C176.742 115.632 170.162 113.792 169.856 113.792C169.792 113.792 170.06 114.584 170.443 115.555C171.568 118.404 172.283 120.972 172.654 123.565C173.165 127.18 173.982 131.818 174.199 132.495C174.876 134.488 176.026 136.327 179.297 140.556C182.375 144.554 186.042 149.511 186.323 150.073C186.757 150.916 187.6 154.161 187.6 154.966C187.6 155.119 187.434 155.273 187.102 155.4C186.578 155.605 186.451 155.873 186.451 156.767C186.451 157.342 185.888 158.147 184.7 159.297C183.819 160.153 183.614 160.28 183.065 160.37C182.081 160.536 180.319 160.498 179.68 160.306C178.3 159.897 178.223 159.846 177.981 159.335C177.84 159.054 177.521 158.569 177.265 158.249C177.01 157.93 176.537 157.304 176.205 156.844C175.4 155.707 174.583 154.979 173.573 154.519C172.73 154.136 171.363 153.254 169.958 152.168C168.885 151.351 168.055 150.367 167.416 149.179C167.096 148.591 166.534 147.672 166.164 147.148C165.244 145.819 164.797 144.848 164.388 143.354C164.069 142.178 164.043 141.884 164.018 139.214C163.992 137.63 163.928 133.466 163.864 129.953C163.724 123.233 163.711 123.041 163.021 120.371C162.689 119.068 160.722 112.668 160.619 112.579C160.594 112.54 159.84 112.451 158.959 112.374C157.579 112.246 157.132 112.259 155.829 112.451C154.73 112.617 153.976 112.642 153.018 112.579C151.971 112.515 151.703 112.527 151.703 112.668C151.703 113.256 152.175 115.3 152.673 116.871C153.274 118.762 155.267 128.228 155.791 131.626C156.11 133.708 156.135 137.043 155.854 139.802C155.624 142.038 155.369 143.162 154.654 144.899C154.194 146.036 154.04 146.266 153.299 146.956C152.456 147.748 152.214 148.157 152.214 148.796C152.214 149.23 151.255 150.584 150.719 150.904C150.527 151.019 150.157 151.427 149.914 151.823C149.671 152.207 149.352 152.577 149.224 152.654C149.096 152.73 148.739 153.011 148.445 153.28C147.717 153.944 147.104 154.174 145.877 154.263C143.986 154.378 143.859 154.302 141.534 152.002C140.256 150.738 139.106 149.741 138.455 149.307C137.637 148.77 137.356 148.489 137.216 148.131C136.973 147.557 135.491 146.253 134.482 145.742C134.047 145.525 133.677 145.244 133.6 145.053C133.524 144.887 133.128 144.491 132.719 144.184C132.31 143.877 131.876 143.43 131.748 143.187C131.607 142.945 131.365 142.638 131.199 142.51C131.033 142.383 130.764 142.038 130.611 141.769C130.445 141.488 130.177 141.169 130.011 141.054C129.755 140.888 129.717 140.773 129.768 140.428C129.806 140.16 129.768 139.904 129.653 139.738C129.474 139.496 129.487 139.47 129.717 139.47C129.87 139.47 129.985 139.432 129.985 139.393C129.985 139.355 129.5 138.729 128.899 138.001C128.299 137.273 127.813 136.647 127.813 136.608C127.813 136.57 128.605 136.928 129.576 137.413C130.534 137.886 132.425 138.716 133.754 139.253C135.095 139.789 136.871 140.518 137.714 140.888C139.413 141.642 139.988 141.718 140.55 141.31C141.329 140.747 141.368 140.53 141.483 135.752C141.61 130.949 141.712 129.582 142.211 125.226C142.505 122.684 142.543 121.751 142.543 118.302C142.556 116.104 142.517 114.278 142.479 114.239C142.377 114.137 139.324 114.431 138.429 114.635C137.969 114.738 137.088 114.993 136.462 115.21C135.836 115.415 134.622 115.721 133.766 115.9C132.923 116.066 131.825 116.296 131.326 116.398C130.841 116.501 129.308 116.705 127.941 116.871L125.463 117.152L124.939 117.637C124.658 117.893 124.07 118.315 123.623 118.583C122.767 119.081 122.665 119.222 122.461 120.282C122.026 122.415 122.282 125.136 123.15 128.036C123.674 129.723 123.879 130.183 124.722 131.486C126.178 133.747 126.638 135.254 126.753 138.129C126.817 139.764 126.842 139.968 127.175 140.556C127.366 140.914 127.558 141.348 127.596 141.527C127.711 141.961 127.264 143.698 126.868 144.376C126.702 144.669 126.536 145.065 126.485 145.257C126.357 145.806 125.335 146.739 124.045 147.505C123.15 148.042 122.448 148.63 120.876 150.188C119.752 151.287 118.411 152.705 117.874 153.331C116.162 155.375 112.956 158.62 112.585 158.696C112.394 158.747 111.998 158.965 111.691 159.195C110.861 159.833 110.35 160.05 109.558 160.127C109.162 160.153 108.625 160.268 108.357 160.37C107.68 160.625 106.875 160.6 106.428 160.306L106.057 160.05L105.138 160.561C104.192 161.072 103.937 161.149 103.732 160.945ZM182.503 101.669C182.324 101.541 182.107 101.452 182.018 101.49C181.788 101.579 182.196 101.899 182.554 101.899C182.784 101.911 182.784 101.886 182.503 101.669ZM173.292 93.6077C173.458 93.5055 173.446 93.48 173.241 93.48C173.113 93.48 172.922 93.3778 172.832 93.2628C172.679 93.0456 172.666 93.0584 172.654 93.3139C172.654 93.5438 172.781 93.6971 173.037 93.7227C173.075 93.7227 173.19 93.6716 173.292 93.6077ZM151.958 92.969C152.06 92.9051 152.111 92.8157 152.06 92.7773C151.932 92.6496 151.434 92.8412 151.511 92.9817C151.613 93.1223 151.715 93.1223 151.958 92.969ZM167.965 92.1897C168.591 92.0619 168.681 91.9981 168.719 91.7042C168.757 91.3849 168.795 91.3721 169.46 91.3721C169.843 91.3849 170.533 91.4232 170.993 91.4743C171.798 91.5509 171.644 91.4487 170.712 91.2443C170.507 91.206 170.354 91.1166 170.354 91.0399C170.354 90.9505 170.635 90.9377 171.197 91.0016C171.836 91.0655 172.028 91.0527 171.964 90.9377C171.913 90.8483 171.759 90.8228 171.632 90.8611C171.504 90.8994 171.082 90.8483 170.699 90.7333C170.022 90.5417 169.984 90.5417 169.46 90.81C169.013 91.0527 168.795 91.0783 167.991 91.0144C167.39 90.9761 167.007 91.0016 166.918 91.091C166.815 91.1932 166.675 91.1549 166.394 90.9505C166.062 90.7078 165.87 90.6695 164.771 90.6822L163.519 90.695L165.666 91.1166C166.854 91.3465 167.85 91.5765 167.888 91.6148C168.029 91.7553 167.39 91.6915 165.116 91.3721C163.89 91.1932 162.715 91.0655 162.497 91.0655C162.293 91.0783 162.587 91.1549 163.174 91.2443C164.746 91.4871 166.011 91.7937 166.585 92.0747C167.224 92.3685 167.109 92.3558 167.965 92.1897Z" fill="white"/>
<path d="M155.791 94.387C155.791 94.0804 155.969 93.8632 156.225 93.8632C156.519 93.8632 156.672 93.9526 156.928 94.2848C157.081 94.4892 157.055 94.502 156.442 94.502C156.084 94.502 155.791 94.4509 155.791 94.387Z" fill="white"/>
<path d="M144.102 87.2841C144.485 86.9647 144.919 86.7859 145.673 86.6581C146.158 86.5815 146.197 86.6964 145.801 87.0541C145.328 87.4757 144.983 87.6035 144.331 87.6035L143.718 87.5907L144.102 87.2841Z" fill="white"/>
<path d="M179.258 84.9718C179.22 84.9335 179.22 84.5119 179.258 84.0392C179.335 83.0939 179.13 82.519 178.466 81.8164C178.044 81.382 175.771 80.2323 174.263 79.6957C170.865 78.4949 161.807 77.5623 149.377 77.128C141.687 76.8597 138.25 76.6681 136.973 76.4253C136.487 76.3359 135.887 76.2848 135.67 76.3231C135.44 76.3615 135.223 76.3231 135.172 76.2465C135.12 76.1571 134.737 76.1443 134.073 76.1954C133.345 76.2465 133.051 76.2337 133.051 76.1187C133.051 76.0421 132.847 75.9782 132.553 75.9782C131.978 75.9782 131.748 75.7738 132.157 75.6205C132.348 75.5566 131.876 75.4289 130.598 75.2373C128.452 74.9051 128.58 74.9051 128.58 75.1478C128.58 75.25 128.529 75.3395 128.452 75.3395C128.388 75.3395 128.324 75.2756 128.324 75.1989C128.324 75.0967 128.26 75.0967 128.133 75.2117C127.903 75.4033 127.558 75.2884 127.558 75.0201C127.558 74.7774 127.238 74.6496 126.089 74.458C125.603 74.3686 125.067 74.2791 124.913 74.2408C124.747 74.2153 124.619 74.2408 124.619 74.3175C124.619 74.3813 124.773 74.4452 124.977 74.4452C125.526 74.4452 125.897 74.5857 125.897 74.7901C125.897 74.9434 125.769 74.969 125.233 74.8923C124.032 74.7263 123.406 74.5219 123.367 74.2919C123.342 74.1386 123.406 74.062 123.559 74.062C123.751 74.062 123.764 74.0364 123.597 73.9342C123.495 73.8703 123.291 73.8065 123.163 73.8065C123.023 73.8065 122.818 73.7298 122.716 73.6404C122.601 73.5382 121.362 73.1038 119.957 72.6695C113.326 70.5999 110.848 69.3097 108.421 66.7163C107.629 65.8732 106.607 64.5063 106.607 64.3019C106.607 64.0975 107.003 64.2635 107.13 64.519C107.309 64.864 108.063 65.5794 108.778 66.0776C109.072 66.282 109.468 66.6397 109.634 66.8696C109.813 67.0996 110.018 67.2912 110.081 67.2912C110.145 67.2912 110.541 67.5595 110.963 67.8789C111.793 68.5176 113.582 69.5013 113.786 69.4374C113.863 69.4119 113.684 69.2202 113.39 69.0286C112.815 68.6198 111.959 67.6106 110.58 65.7071L109.673 64.4552V65.1322C109.66 65.7454 109.647 65.7965 109.494 65.5921C109.392 65.4644 109.123 64.8129 108.893 64.1486C108.587 63.2671 108.331 62.7689 107.923 62.2962C107.297 61.5552 107.067 61.172 107.169 61.057C107.297 60.942 108.152 61.8235 108.382 62.309C108.497 62.5645 108.778 62.9988 109.008 63.2671L109.417 63.7781V63.3565C109.417 62.8072 109.57 62.8327 110.925 63.5098C112.981 64.5446 114.438 65.0173 115.805 65.0811C116.546 65.1195 117.593 65.2855 118.487 65.5027C120.404 65.9882 122.473 66.3459 124.619 66.563C126.357 66.7419 128.171 66.7674 128.414 66.6141C128.477 66.5758 129.372 66.5886 130.381 66.6525C133.817 66.8696 135.018 66.9207 134.954 66.8569C134.891 66.793 128.158 66.2692 127.404 66.2692C127.098 66.2692 127.047 66.2309 127.162 66.1031C127.277 65.9626 127.864 65.9371 130.151 65.9882C132.029 66.0265 133.153 66.0009 133.447 65.9115C133.881 65.771 135.849 65.5921 139.311 65.375C140.575 65.2983 141.393 65.1833 141.891 65.0045C142.53 64.7873 144.05 64.4807 146.401 64.0975C147.857 63.8547 148.228 63.7398 148.751 63.3565C149.199 63.0244 149.441 62.9477 149.965 62.9477C150.323 62.9349 150.872 62.8838 151.191 62.82C151.562 62.7433 153.12 62.7944 155.663 62.9349C157.898 63.0755 159.942 63.1266 160.453 63.0755C161.884 62.9349 166.47 63.1521 168.604 63.4587C170.111 63.6759 170.852 63.8547 171.887 64.2635C172.628 64.5446 173.599 64.9023 174.059 65.0556C175.962 65.7071 177.355 66.6269 178.888 68.2366C180.191 69.6163 180.446 70.1656 181.532 73.7426C182.362 76.4764 182.388 76.6042 182.49 78.4693C182.643 81.2415 182.439 81.9186 181.059 83.1322C180.714 83.426 180.446 83.771 180.446 83.9115C180.446 84.6141 179.629 85.3423 179.258 84.9718Z" fill="white"/>
</g>
<defs>
<clipPath id="clip0_17_214">
<rect width="104.5" height="104.5" fill="white" transform="translate(97 57)"/>
</clipPath>
</defs>
</svg>
